<svg width="86" height="113" viewBox="0 0 86 113" fill="none" xmlns="http://www.w3.org/2000/svg">
<rect y="25" width="86" height="81" rx="11.5556" fill="url(#paint0_linear_2_68)"/>
<path d="M36.8371 89.15C36.8371 91.1833 36.5871 93.0167 36.0871 94.65C35.5871 96.2833 34.8371 97.675 33.8371 98.825C32.8538 99.975 31.6204 100.858 30.1371 101.475C28.6538 102.092 26.9288 102.4 24.9621 102.4C24.0621 102.4 23.1788 102.342 22.3121 102.225C21.4454 102.125 20.5371 101.958 19.5871 101.725C19.6371 101.058 19.6954 100.392 19.7621 99.725C19.8288 99.0583 19.8871 98.3917 19.9371 97.725C19.9871 97.3583 20.1288 97.0667 20.3621 96.85C20.6121 96.6167 20.9621 96.5 21.4121 96.5C21.6954 96.5 22.0621 96.5583 22.5121 96.675C22.9788 96.7917 23.5621 96.85 24.2621 96.85C25.2121 96.85 26.0538 96.7167 26.7871 96.45C27.5204 96.1667 28.1288 95.725 28.6121 95.125C29.1121 94.525 29.4871 93.75 29.7371 92.8C29.9871 91.8333 30.1121 90.6667 30.1121 89.3V65.85H36.8371V89.15ZM63.7965 72.425C63.5965 72.775 63.3798 73.0333 63.1465 73.2C62.9298 73.35 62.6548 73.425 62.3215 73.425C61.9715 73.425 61.5882 73.3 61.1715 73.05C60.7715 72.7833 60.2882 72.4917 59.7215 72.175C59.1548 71.8583 58.4882 71.575 57.7215 71.325C56.9715 71.0583 56.0798 70.925 55.0465 70.925C54.1132 70.925 53.2965 71.0417 52.5965 71.275C51.8965 71.4917 51.3048 71.8 50.8215 72.2C50.3548 72.6 50.0048 73.0833 49.7715 73.65C49.5382 74.2 49.4215 74.8083 49.4215 75.475C49.4215 76.325 49.6548 77.0333 50.1215 77.6C50.6048 78.1667 51.2382 78.65 52.0215 79.05C52.8048 79.45 53.6965 79.8083 54.6965 80.125C55.6965 80.4417 56.7215 80.7833 57.7715 81.15C58.8215 81.5 59.8465 81.9167 60.8465 82.4C61.8465 82.8667 62.7382 83.4667 63.5215 84.2C64.3048 84.9167 64.9298 85.8 65.3965 86.85C65.8798 87.9 66.1215 89.175 66.1215 90.675C66.1215 92.3083 65.8382 93.8417 65.2715 95.275C64.7215 96.6917 63.9048 97.9333 62.8215 99C61.7548 100.05 60.4465 100.883 58.8965 101.5C57.3465 102.1 55.5715 102.4 53.5715 102.4C52.4215 102.4 51.2882 102.283 50.1715 102.05C49.0548 101.833 47.9798 101.517 46.9465 101.1C45.9298 100.683 44.9715 100.183 44.0715 99.6C43.1715 99.0167 42.3715 98.3667 41.6715 97.65L43.6465 94.425C43.8132 94.1917 44.0298 94 44.2965 93.85C44.5632 93.6833 44.8465 93.6 45.1465 93.6C45.5632 93.6 46.0132 93.775 46.4965 94.125C46.9798 94.4583 47.5548 94.8333 48.2215 95.25C48.8882 95.6667 49.6632 96.05 50.5465 96.4C51.4465 96.7333 52.5215 96.9 53.7715 96.9C55.6882 96.9 57.1715 96.45 58.2215 95.55C59.2715 94.6333 59.7965 93.325 59.7965 91.625C59.7965 90.675 59.5548 89.9 59.0715 89.3C58.6048 88.7 57.9798 88.2 57.1965 87.8C56.4132 87.3833 55.5215 87.0333 54.5215 86.75C53.5215 86.4667 52.5048 86.1583 51.4715 85.825C50.4382 85.4917 49.4215 85.0917 48.4215 84.625C47.4215 84.1583 46.5298 83.55 45.7465 82.8C44.9632 82.05 44.3298 81.1167 43.8465 80C43.3798 78.8667 43.1465 77.475 43.1465 75.825C43.1465 74.5083 43.4048 73.225 43.9215 71.975C44.4548 70.725 45.2215 69.6167 46.2215 68.65C47.2215 67.6833 48.4548 66.9083 49.9215 66.325C51.3882 65.7417 53.0715 65.45 54.9715 65.45C57.1048 65.45 59.0715 65.7833 60.8715 66.45C62.6715 67.1167 64.2048 68.05 65.4715 69.25L63.7965 72.425Z" fill="black"/>
<rect x="43" width="43" height="63" rx="11.5556" fill="url(#paint1_linear_2_68)"/>
<path d="M53.198 31.925C53.448 30.1917 53.9314 28.675 54.648 27.375C55.3647 26.0583 56.2564 24.9667 57.323 24.1C58.4064 23.2167 59.6397 22.5583 61.023 22.125C62.423 21.675 63.923 21.45 65.523 21.45C67.1897 21.45 68.6897 21.6917 70.023 22.175C71.373 22.6417 72.523 23.3 73.473 24.15C74.423 24.9833 75.148 25.9667 75.648 27.1C76.1647 28.2333 76.423 29.4583 76.423 30.775C76.423 31.925 76.2897 32.9417 76.023 33.825C75.773 34.6917 75.4064 35.45 74.923 36.1C74.4397 36.75 73.8397 37.3 73.123 37.75C72.4064 38.2 71.598 38.575 70.698 38.875C72.8647 39.5583 74.4814 40.6 75.548 42C76.6147 43.4 77.148 45.1583 77.148 47.275C77.148 49.075 76.8147 50.6667 76.148 52.05C75.4814 53.4333 74.5814 54.6 73.448 55.55C72.3147 56.4833 70.998 57.1917 69.498 57.675C68.0147 58.1583 66.4397 58.4 64.773 58.4C62.9564 58.4 61.373 58.1917 60.023 57.775C58.673 57.3583 57.498 56.7417 56.498 55.925C55.498 55.1083 54.648 54.1083 53.948 52.925C53.248 51.7417 52.648 50.375 52.148 48.825L54.873 47.7C55.5897 47.4 56.2564 47.325 56.873 47.475C57.5064 47.6083 57.9647 47.9417 58.248 48.475C58.548 49.0583 58.873 49.6333 59.223 50.2C59.5897 50.7667 60.023 51.275 60.523 51.725C61.023 52.1583 61.6064 52.5167 62.273 52.8C62.9564 53.0667 63.7647 53.2 64.698 53.2C65.748 53.2 66.6647 53.0333 67.448 52.7C68.2314 52.35 68.8814 51.9 69.398 51.35C69.9314 50.8 70.323 50.1917 70.573 49.525C70.8397 48.8417 70.973 48.1583 70.973 47.475C70.973 46.6083 70.8814 45.825 70.698 45.125C70.5147 44.4083 70.1314 43.8 69.548 43.3C68.9647 42.8 68.123 42.4083 67.023 42.125C65.9397 41.8417 64.4814 41.7 62.648 41.7V37.3C64.1647 37.2833 65.423 37.1417 66.423 36.875C67.423 36.6083 68.2147 36.2417 68.798 35.775C69.398 35.2917 69.8147 34.7167 70.048 34.05C70.2814 33.3833 70.398 32.65 70.398 31.85C70.398 30.15 69.923 28.8583 68.973 27.975C68.023 27.0917 66.7564 26.65 65.173 26.65C64.4397 26.65 63.7647 26.7583 63.148 26.975C62.5314 27.175 61.973 27.4667 61.473 27.85C60.9897 28.2167 60.5814 28.65 60.248 29.15C59.9147 29.65 59.6647 30.2 59.498 30.8C59.2147 31.5667 58.8397 32.075 58.373 32.325C57.923 32.575 57.2814 32.6333 56.448 32.5L53.198 31.925Z" fill="black"/>
<path d="M62.0757 17.395C62.139 17.395 62.194 17.42 62.2407 17.47L62.7057 17.975C62.4124 18.3283 62.0524 18.6017 61.6257 18.795C61.199 18.985 60.689 19.08 60.0957 19.08C59.569 19.08 59.0924 18.99 58.6657 18.81C58.2424 18.6267 57.8807 18.3733 57.5807 18.05C57.2807 17.7233 57.049 17.335 56.8857 16.885C56.7257 16.435 56.6457 15.94 56.6457 15.4C56.6457 14.86 56.7307 14.365 56.9007 13.915C57.074 13.4617 57.3157 13.0733 57.6257 12.75C57.939 12.4233 58.3124 12.17 58.7457 11.99C59.1824 11.81 59.6624 11.72 60.1857 11.72C60.7057 11.72 61.164 11.805 61.5607 11.975C61.9607 12.1417 62.3074 12.365 62.6007 12.645L62.2157 13.19C62.189 13.2267 62.1574 13.2583 62.1207 13.285C62.084 13.3117 62.034 13.325 61.9707 13.325C61.904 13.325 61.8274 13.295 61.7407 13.235C61.6574 13.1717 61.549 13.1033 61.4157 13.03C61.2857 12.9533 61.1207 12.885 60.9207 12.825C60.724 12.7617 60.4774 12.73 60.1807 12.73C59.8374 12.73 59.5224 12.79 59.2357 12.91C58.949 13.03 58.7024 13.205 58.4957 13.435C58.289 13.665 58.1274 13.945 58.0107 14.275C57.8974 14.605 57.8407 14.98 57.8407 15.4C57.8407 15.8233 57.9007 16.2017 58.0207 16.535C58.1407 16.865 58.3057 17.145 58.5157 17.375C58.7257 17.6017 58.9724 17.775 59.2557 17.895C59.539 18.015 59.844 18.075 60.1707 18.075C60.3707 18.075 60.549 18.065 60.7057 18.045C60.8657 18.0217 61.0124 17.9867 61.1457 17.94C61.279 17.89 61.404 17.8283 61.5207 17.755C61.6407 17.6817 61.759 17.5917 61.8757 17.485C61.9424 17.425 62.009 17.395 62.0757 17.395ZM67.4813 13.03C67.4447 13.09 67.4063 13.135 67.3663 13.165C67.3263 13.1917 67.2763 13.205 67.2163 13.205C67.153 13.205 67.0813 13.1783 67.0013 13.125C66.9247 13.0717 66.828 13.0133 66.7113 12.95C66.598 12.8833 66.463 12.8233 66.3063 12.77C66.1497 12.7133 65.963 12.685 65.7463 12.685C65.5463 12.685 65.3697 12.71 65.2163 12.76C65.0663 12.81 64.9397 12.88 64.8363 12.97C64.733 13.06 64.6547 13.1667 64.6013 13.29C64.5513 13.41 64.5263 13.5417 64.5263 13.685C64.5263 13.8683 64.5747 14.0217 64.6713 14.145C64.768 14.265 64.8947 14.3683 65.0513 14.455C65.2113 14.5417 65.393 14.6183 65.5963 14.685C65.7997 14.7483 66.0063 14.8167 66.2163 14.89C66.4297 14.9633 66.638 15.0467 66.8413 15.14C67.0447 15.2333 67.2247 15.3517 67.3813 15.495C67.5413 15.6383 67.6697 15.8133 67.7663 16.02C67.863 16.2267 67.9113 16.4783 67.9113 16.775C67.9113 17.095 67.8563 17.395 67.7463 17.675C67.6363 17.955 67.4763 18.2 67.2663 18.41C67.0597 18.6167 66.803 18.78 66.4963 18.9C66.193 19.02 65.8463 19.08 65.4563 19.08C65.2263 19.08 65.0013 19.0567 64.7813 19.01C64.5647 18.9667 64.3563 18.905 64.1563 18.825C63.9597 18.7417 63.7747 18.6417 63.6013 18.525C63.428 18.4083 63.273 18.2783 63.1363 18.135L63.4763 17.575C63.5063 17.5283 63.5447 17.4917 63.5913 17.465C63.638 17.4383 63.6897 17.425 63.7463 17.425C63.823 17.425 63.908 17.4617 64.0013 17.535C64.0947 17.605 64.2063 17.6833 64.3363 17.77C64.4697 17.8533 64.6297 17.9317 64.8163 18.005C65.003 18.075 65.2263 18.11 65.4863 18.11C65.9097 18.11 66.2363 18.0067 66.4663 17.8C66.6997 17.5933 66.8163 17.3083 66.8163 16.945C66.8163 16.7417 66.768 16.5767 66.6713 16.45C66.5747 16.32 66.4463 16.2117 66.2863 16.125C66.1297 16.0383 65.9497 15.965 65.7463 15.905C65.543 15.845 65.3363 15.7817 65.1263 15.715C64.9163 15.645 64.7097 15.565 64.5063 15.475C64.303 15.3817 64.1213 15.2617 63.9613 15.115C63.8047 14.965 63.678 14.7817 63.5813 14.565C63.4847 14.345 63.4363 14.0717 63.4363 13.745C63.4363 13.485 63.4863 13.2333 63.5863 12.99C63.6897 12.7467 63.838 12.5317 64.0313 12.345C64.228 12.155 64.4697 12.0033 64.7563 11.89C65.043 11.7767 65.3697 11.72 65.7363 11.72C66.1497 11.72 66.528 11.785 66.8713 11.915C67.218 12.045 67.5163 12.23 67.7663 12.47L67.4813 13.03ZM72.9403 13.03C72.9036 13.09 72.8653 13.135 72.8253 13.165C72.7853 13.1917 72.7353 13.205 72.6753 13.205C72.612 13.205 72.5403 13.1783 72.4603 13.125C72.3836 13.0717 72.287 13.0133 72.1703 12.95C72.057 12.8833 71.922 12.8233 71.7653 12.77C71.6086 12.7133 71.422 12.685 71.2053 12.685C71.0053 12.685 70.8286 12.71 70.6753 12.76C70.5253 12.81 70.3986 12.88 70.2953 12.97C70.192 13.06 70.1136 13.1667 70.0603 13.29C70.0103 13.41 69.9853 13.5417 69.9853 13.685C69.9853 13.8683 70.0336 14.0217 70.1303 14.145C70.227 14.265 70.3536 14.3683 70.5103 14.455C70.6703 14.5417 70.852 14.6183 71.0553 14.685C71.2586 14.7483 71.4653 14.8167 71.6753 14.89C71.8886 14.9633 72.097 15.0467 72.3003 15.14C72.5036 15.2333 72.6836 15.3517 72.8403 15.495C73.0003 15.6383 73.1286 15.8133 73.2253 16.02C73.322 16.2267 73.3703 16.4783 73.3703 16.775C73.3703 17.095 73.3153 17.395 73.2053 17.675C73.0953 17.955 72.9353 18.2 72.7253 18.41C72.5186 18.6167 72.262 18.78 71.9553 18.9C71.652 19.02 71.3053 19.08 70.9153 19.08C70.6853 19.08 70.4603 19.0567 70.2403 19.01C70.0236 18.9667 69.8153 18.905 69.6153 18.825C69.4186 18.7417 69.2336 18.6417 69.0603 18.525C68.887 18.4083 68.732 18.2783 68.5953 18.135L68.9353 17.575C68.9653 17.5283 69.0036 17.4917 69.0503 17.465C69.097 17.4383 69.1486 17.425 69.2053 17.425C69.282 17.425 69.367 17.4617 69.4603 17.535C69.5536 17.605 69.6653 17.6833 69.7953 17.77C69.9286 17.8533 70.0886 17.9317 70.2753 18.005C70.462 18.075 70.6853 18.11 70.9453 18.11C71.3686 18.11 71.6953 18.0067 71.9253 17.8C72.1586 17.5933 72.2753 17.3083 72.2753 16.945C72.2753 16.7417 72.227 16.5767 72.1303 16.45C72.0336 16.32 71.9053 16.2117 71.7453 16.125C71.5886 16.0383 71.4086 15.965 71.2053 15.905C71.002 15.845 70.7953 15.7817 70.5853 15.715C70.3753 15.645 70.1686 15.565 69.9653 15.475C69.762 15.3817 69.5803 15.2617 69.4203 15.115C69.2636 14.965 69.137 14.7817 69.0403 14.565C68.9436 14.345 68.8953 14.0717 68.8953 13.745C68.8953 13.485 68.9453 13.2333 69.0453 12.99C69.1486 12.7467 69.297 12.5317 69.4903 12.345C69.687 12.155 69.9286 12.0033 70.2153 11.89C70.502 11.7767 70.8286 11.72 71.1953 11.72C71.6086 11.72 71.987 11.785 72.3303 11.915C72.677 12.045 72.9753 12.23 73.2253 12.47L72.9403 13.03Z" fill="black"/>
<rect width="43" height="63" rx="11.5556" fill="url(#paint2_linear_2_68)"/>
<path d="M17.648 34.975C18.448 34.8083 19.2147 34.6917 19.948 34.625C20.6814 34.5417 21.3897 34.5 22.073 34.5C23.973 34.5 25.648 34.7833 27.098 35.35C28.548 35.9167 29.7647 36.7 30.748 37.7C31.7314 38.7 32.473 39.875 32.973 41.225C33.473 42.5583 33.723 44 33.723 45.55C33.723 47.4667 33.3814 49.2167 32.698 50.8C32.0314 52.3833 31.098 53.7417 29.898 54.875C28.698 55.9917 27.273 56.8583 25.623 57.475C23.9897 58.0917 22.2064 58.4 20.273 58.4C19.1397 58.4 18.0647 58.2833 17.048 58.05C16.0314 57.8167 15.073 57.5083 14.173 57.125C13.2897 56.725 12.4647 56.275 11.698 55.775C10.948 55.2583 10.273 54.7167 9.67305 54.15L11.573 51.525C11.973 50.9583 12.498 50.675 13.148 50.675C13.5647 50.675 13.9897 50.8083 14.423 51.075C14.8564 51.3417 15.348 51.6333 15.898 51.95C16.4647 52.2667 17.123 52.5583 17.873 52.825C18.6397 53.0917 19.5564 53.225 20.623 53.225C21.7564 53.225 22.7564 53.0417 23.623 52.675C24.4897 52.3083 25.2064 51.8 25.773 51.15C26.3564 50.4833 26.7897 49.7 27.073 48.8C27.373 47.8833 27.523 46.8917 27.523 45.825C27.523 43.8583 26.948 42.325 25.798 41.225C24.6647 40.1083 22.9814 39.55 20.748 39.55C19.0314 39.55 17.273 39.8667 15.473 40.5L11.623 39.4L14.623 21.85H32.473V24.475C32.473 25.3583 32.198 26.075 31.648 26.625C31.098 27.175 30.1647 27.45 28.848 27.45H18.923L17.648 34.975Z" fill="black"/>
<path d="M14.233 11.8V19H13.063V15.795H9.44797V19H8.27297V11.8H9.44797V14.95H13.063V11.8H14.233ZM20.9038 12.775H18.6588V19H17.4938V12.775H15.2438V11.8H20.9038V12.775ZM29.5658 11.8V19H28.5358V14.065C28.5358 13.985 28.5374 13.8983 28.5408 13.805C28.5474 13.7083 28.5558 13.6117 28.5658 13.515L26.2508 17.79C26.1608 17.9667 26.0224 18.055 25.8358 18.055H25.6708C25.4808 18.055 25.3424 17.9667 25.2558 17.79L22.9058 13.505C22.9158 13.6017 22.9224 13.6983 22.9258 13.795C22.9324 13.8917 22.9358 13.9817 22.9358 14.065V19H21.9058V11.8H22.7808C22.8841 11.8 22.9641 11.81 23.0208 11.83C23.0774 11.8467 23.1291 11.9017 23.1758 11.995L25.4858 16.18C25.5358 16.2767 25.5824 16.3767 25.6258 16.48C25.6724 16.58 25.7141 16.6833 25.7508 16.79C25.7908 16.6833 25.8324 16.5783 25.8758 16.475C25.9224 16.3683 25.9708 16.2667 26.0208 16.17L28.2958 11.995C28.3424 11.9017 28.3941 11.8467 28.4508 11.83C28.5074 11.81 28.5874 11.8 28.6908 11.8H29.5658ZM35.431 18.02V19H31.271V11.8H32.441V18.02H35.431Z" fill="black"/>
<defs>
<linearGradient id="paint0_linear_2_68" x1="86" y1="25" x2="5.34331" y2="114.229" gradientUnits="userSpaceOnUse">
<stop stop-color="#F7DF1E"/>
<stop offset="1" stop-color="#F7D049"/>
</linearGradient>
<linearGradient id="paint1_linear_2_68" x1="86" y1="-1.87755e-06" x2="26.4399" y2="42.3578" gradientUnits="userSpaceOnUse">
<stop stop-color="#007DB7"/>
<stop offset="1" stop-color="#019BE7"/>
</linearGradient>
<linearGradient id="paint2_linear_2_68" x1="43" y1="-1.87755e-06" x2="-16.5601" y2="42.3578" gradientUnits="userSpaceOnUse">
<stop stop-color="#FF3336"/>
<stop offset="1" stop-color="#FF7A64"/>
</linearGradient>
</defs>
</svg>
