<?xml version="1.0" standalone="no"?>
<!DOCTYPE svg PUBLIC "-//W3C//DTD SVG 20010904//EN"
 "http://www.w3.org/TR/2001/REC-SVG-20010904/DTD/svg10.dtd">
<svg version="1.0" xmlns="http://www.w3.org/2000/svg"
 width="1600.000000pt" height="1600.000000pt" viewBox="0 0 1600.000000 1600.000000"
 preserveAspectRatio="xMidYMid meet">
<metadata>
Created by potrace 1.14, written by Peter Selinger 2001-2017
</metadata>
<g transform="translate(0.000000,1600.000000) scale(0.100000,-0.100000)"
fill="#000000" stroke="none">
<path d="M1475 15989 c-509 -66 -955 -353 -1226 -789 -103 -167 -178 -360
-221 -572 l-23 -113 0 -6520 0 -6520 27 -126 c15 -69 42 -166 59 -215 212
-605 736 -1034 1369 -1119 157 -22 12921 -22 13081 -1 382 51 725 226 994 507
226 236 370 518 443 864 15 74 16 550 20 6550 2 4723 0 6497 -8 6570 -59 522
-355 983 -807 1256 -159 96 -336 164 -550 212 l-98 21 -6495 2 c-3797 1 -6524
-2 -6565 -7z m8411 -4131 c-14 -57 -2456 -8121 -2459 -8124 -2 -2 -303 -3
-669 -2 l-665 3 1226 4055 c675 2230 1230 4063 1234 4073 6 16 47 17 673 17
l666 0 -6 -22z m-4408 -2405 l-3 -696 -1392 -551 c-766 -303 -1389 -554 -1385
-557 4 -4 631 -254 1395 -555 l1387 -549 0 -692 c0 -381 -2 -693 -4 -693 -2 0
-1058 443 -2347 984 l-2344 983 0 529 0 529 760 319 c418 175 1471 617 2340
982 869 365 1583 663 1588 664 4 0 6 -314 5 -697z m7385 -290 l2327 -977 -2
-530 -3 -531 -2315 -972 c-1273 -535 -2327 -976 -2342 -982 l-28 -10 0 692 0
692 1390 550 c765 302 1390 552 1390 556 0 3 -625 253 -1390 555 l-1390 549 0
699 c0 661 1 698 18 692 9 -4 1064 -446 2345 -983z"/>
</g>
</svg>
